<svg width="22" height="20" viewBox="0 0 22 20" fill="none" xmlns="http://www.w3.org/2000/svg">
<path d="M8.08427 13.1753C3.72408 13.1753 0 13.8556 0 16.5749C0 19.2963 3.7004 20 8.08427 20C12.4445 20 16.1685 19.3197 16.1685 16.6004C16.1685 13.8791 12.4681 13.1753 8.08427 13.1753" fill="white"/>
<path d="M8.08419 10.5831C11.0538 10.5831 13.4335 8.22908 13.4335 5.29157C13.4335 2.35406 11.0538 0 8.08419 0C5.11569 0 2.73486 2.35406 2.73486 5.29157C2.73486 8.22908 5.11569 10.5831 8.08419 10.5831" fill="white"/>
<path d="M15.5908 5.38748C15.5908 6.88338 15.1365 8.27921 14.3401 9.43867C14.2572 9.55792 14.3304 9.71869 14.4746 9.74424C14.6748 9.77724 14.8804 9.79747 15.0903 9.80173C17.1783 9.85603 19.0522 8.52622 19.5699 6.52352C20.3373 3.55193 18.0857 0.883789 15.2173 0.883789C14.9062 0.883789 14.6081 0.91573 14.3175 0.974289C14.2776 0.982806 14.2346 1.00197 14.2131 1.03604C14.1851 1.07969 14.2055 1.13612 14.2335 1.17339C15.0956 2.36905 15.5908 3.8245 15.5908 5.38748" fill="white"/>
<path d="M21.7572 13.5216C21.3751 12.7156 20.4527 12.163 19.0492 11.8915C18.3872 11.7318 16.5941 11.505 14.9268 11.537C14.9021 11.5402 14.8881 11.5572 14.8859 11.5679C14.8827 11.5849 14.8902 11.6104 14.9225 11.6285C15.6932 12.0054 18.6714 13.6451 18.2968 17.1032C18.2807 17.2544 18.4023 17.3822 18.554 17.3609C19.287 17.2576 21.1727 16.8562 21.7572 15.6084C22.0812 14.9483 22.0812 14.1817 21.7572 13.5216" fill="white"/>
</svg>
